<svg width="286" height="111" viewBox="0 0 286 111" fill="none" xmlns="http://www.w3.org/2000/svg">
<path d="M210.571 91.5392L246.985 56.835C253.717 50.4312 258.256 45.5768 260.602 42.2716C262.948 38.9664 264.121 35.4547 264.121 31.7364C264.121 27.8115 262.795 24.558 260.143 21.9758C257.491 19.3937 254.074 18.1026 249.892 18.1026H248.362C243.67 18.1026 239.794 19.7035 236.734 22.9054C233.674 26.004 232.093 30.2904 231.991 35.7646H211.642C211.642 28.5345 213.223 22.2341 216.385 16.8632C219.649 11.4923 224.086 7.41246 229.696 4.62373C235.408 1.73171 241.834 0.285706 248.974 0.285706C256.012 0.285706 262.183 1.62843 267.487 4.31388C272.893 6.89603 277.075 10.5111 280.033 15.1589C282.991 19.8068 284.47 25.0744 284.47 30.9617C284.47 37.5721 282.94 43.4594 279.88 48.6237C276.82 53.6847 271.567 59.6754 264.121 66.5955L236.275 92.4688H286V110.286H210.571V91.5392Z" fill="black"/>
<path d="M52.1824 87.8279H0V67.2422L51.5649 0.142273H71.7894V69.7565H88V87.8279H71.7894V110.142H52.1824V87.8279ZM52.1824 69.7565V28.1137L20.0702 69.7565H52.1824Z" fill="black"/>
<path d="M149.5 111C180.152 111 205 86.1518 205 55.5C205 24.8482 180.152 0 149.5 0C118.848 0 94 24.8482 94 55.5C94 86.1518 118.848 111 149.5 111Z" fill="#1F51F6"/>
</svg>
