<svg width="164" height="42" viewBox="0 0 164 42" fill="none" xmlns="http://www.w3.org/2000/svg">
<path d="M57.1666 41.3167C53.9394 41.3167 50.8294 40.1446 49.0105 37.0385H47.9541V40.4376H40.6196V0H47.9541V14.7099H49.0105C50.8879 11.4866 54.4085 10.2559 57.5773 10.2559C65.4983 10.2559 70.8384 16.5853 70.8384 25.4933C70.8384 34.5771 64.9704 41.3167 57.1666 41.3167ZM55.5822 34.7529C60.1004 34.7529 63.3276 31.0608 63.3276 25.7863C63.3276 20.5119 60.0415 16.8197 55.5822 16.8197C51.1813 16.8197 47.9541 20.336 47.9541 25.7863C47.9541 31.2366 51.1813 34.7529 55.5822 34.7529ZM84.3924 41.3167C78.7594 41.3167 74.1829 37.9176 74.1829 32.3501C74.1829 25.7863 79.229 23.6765 85.3311 23.0319L93.9568 22.1528V20.5119C93.9568 17.9918 91.9033 16.2336 88.2654 16.2336C84.8031 16.2336 82.808 17.7574 82.1628 20.043H75.1215C75.8257 14.4755 80.4611 10.2559 88.2654 10.2559C95.7757 10.2559 100.763 13.8894 100.763 20.9807V35.2804C100.763 37.0971 100.939 39.6171 101.057 40.3204V40.4376H94.0156C93.9568 39.4414 93.9568 38.5036 93.9568 37.5073H92.9008C91.0819 40.4376 87.9131 41.3167 84.3924 41.3167ZM86.3875 35.8078C91.1991 35.8078 93.9568 32.1743 93.9568 28.4822V27.017L87.5024 27.7789C83.5122 28.2477 81.5759 29.4198 81.5759 31.9985C81.5759 34.4013 83.571 35.8078 86.3875 35.8078ZM118.366 41.3167C110.973 41.3167 105.692 37.6246 104.87 31.8226H112.088C112.909 34.4013 115.609 35.5148 118.425 35.5148C121.3 35.5148 123.647 34.2841 123.647 32.1157C123.647 29.9473 121.418 29.3612 118.366 28.8338L115.257 28.3064C109.389 27.31 105.751 24.8486 105.751 19.5741C105.751 13.8308 110.797 10.2559 117.78 10.2559C124.586 10.2559 129.104 13.4206 130.336 18.9295H123.295C122.474 16.7611 120.303 15.882 117.838 15.882C114.846 15.882 112.909 17.1713 112.909 18.9881C112.909 20.8635 114.435 21.4495 117.604 21.977L120.714 22.5044C126.405 23.4421 130.747 25.7863 130.747 31.471C130.747 37.6832 125.584 41.3167 118.366 41.3167ZM149.113 41.3167C140.077 41.3167 134.092 35.1631 134.092 25.7277C134.092 16.4681 140.429 10.2559 149.172 10.2559C158.325 10.2559 163.606 17.0541 163.606 26.0207V27.31H141.25C141.602 32.1743 145.006 35.046 149.113 35.046C152.516 35.046 154.57 33.8738 155.568 31.8226H163.078C161.552 37.3316 156.095 41.3167 149.113 41.3167ZM156.448 22.4458C155.861 18.5192 152.751 16.2336 149.113 16.2336C145.299 16.2336 142.072 18.4607 141.368 22.4458H156.448Z" fill="#0A0B0D"/>
<path d="M1.76031 40.4376C0.586767 40.4376 0 39.8516 0 38.6794V12.8931C0 11.7211 0.586767 11.135 1.76031 11.135H27.5781C28.7516 11.135 29.3384 11.7211 29.3384 12.8931V38.6794C29.3384 39.8516 28.7516 40.4376 27.5781 40.4376H1.76031Z" fill="#0000FF"/>
</svg>
