<svg width="203" height="59" viewBox="0 0 203 59" fill="none" xmlns="http://www.w3.org/2000/svg">
<path fill-rule="evenodd" clip-rule="evenodd" d="M5.03285 29.3686C5.03285 17.9489 12.6073 8.319 22.9498 5.19309V0C9.76372 3.22676 0 15.1507 0 29.3686C0 43.5864 9.76372 55.5102 22.9498 58.7372V53.544C12.6073 50.4433 5.03285 40.7883 5.03285 29.3686ZM41.0179 34.9902C41.0179 29.076 35.7105 27.9477 31.1846 26.9856C27.8202 26.2703 24.8875 25.6468 24.8875 23.2176C24.8875 21.1756 26.5232 19.8648 29.6436 19.8648C33.3679 19.8648 34.6513 21.6798 35.0539 24.1251H40.1874C39.7294 19.536 37.1003 16.6385 32.7137 15.7753V11.7223H27.6808V15.6306C22.8752 16.2437 19.8547 19.0473 19.8547 23.2176C19.8547 29.1895 25.2219 30.4295 29.7691 31.4801C33.1111 32.2522 36.0102 32.922 36.0102 35.2928C36.0102 37.4103 33.9718 38.822 30.5244 38.822C26.02 38.822 24.5352 36.8305 23.9817 34.0827H18.9739C19.2983 39.1091 22.3923 42.2549 27.6808 43.0399V47.015H32.7137V43.093C37.8751 42.4248 41.0179 39.4169 41.0179 34.9902ZM37.4446 5.19309V1.13578e-05C50.6305 3.22677 60.3946 15.1507 60.3946 29.3686C60.3946 43.5864 50.6305 55.5102 37.4446 58.7372V53.544C47.7873 50.4182 55.3614 40.7883 55.3614 29.3686C55.3614 17.9489 47.7873 8.319 37.4446 5.19309ZM188.103 42.78C184.177 42.78 181.611 41.6454 179.748 39.0237C178.239 36.7549 177.559 33.8306 177.559 29.3686C177.559 24.9066 178.339 21.7554 180.05 19.411C181.787 16.991 184.278 16.0078 188.178 16.0078C192.884 16.0078 196.256 18.9572 197.112 23.747H203C202.27 16.1842 196.483 11.2181 188.279 11.2181C177.358 11.2181 171.469 17.6464 171.469 29.3686C171.469 41.0908 177.207 47.5193 188.254 47.5193C196.407 47.5193 202.27 42.5783 203 35.0406H197.112C196.256 39.8556 192.834 42.78 188.103 42.78ZM138.228 11.7223H150.457C161.328 11.7223 167.544 18.2766 167.544 29.3686C167.544 40.4606 161.328 47.015 150.457 47.015H138.228V11.7223ZM150.256 42.452C154.106 42.452 157.378 41.0404 159.29 38.5699C160.875 36.3767 161.454 33.8306 161.454 29.3686C161.454 25.1839 160.875 22.6126 159.29 20.2177C157.579 17.7472 154.383 16.3355 150.256 16.3355H143.764V42.452H150.256ZM93.1077 35.5448C93.1077 40.1077 89.9369 42.78 84.552 42.78C79.1667 42.78 75.9959 40.1077 75.9959 35.5448V11.7223H70.4598V35.3431C70.4598 43.1579 75.4425 47.5193 84.552 47.5193C93.6615 47.5193 98.6438 43.1579 98.6438 35.3431V11.7223H93.1077V35.5448ZM117.593 16.0078C112.862 16.0078 110.521 17.848 110.521 20.9235C110.521 24.5981 114.782 25.4639 119.585 26.4398C125.787 27.7 132.892 29.1439 132.892 37.0574C132.892 43.6872 127.885 47.5193 118.901 47.5193C109.389 47.5193 103.802 43.2336 103.576 35.6204H109.112C109.892 40.2337 113.289 42.78 118.951 42.78C123.984 42.78 127.054 40.6875 127.054 37.3599C127.054 33.6439 122.749 32.7711 117.915 31.7914C111.731 30.5379 104.683 29.1092 104.683 21.3269C104.683 15.1002 109.439 11.2181 117.819 11.2181C126.199 11.2181 131.131 15.2011 131.836 22.537H125.997C125.242 18.0245 122.625 16.0078 117.593 16.0078Z" fill="#F0F2F5"/>
</svg>
