<svg width="131" height="49" viewBox="0 0 131 49" fill="none" xmlns="http://www.w3.org/2000/svg">
<path d="M21.2923 31.2595C21.2923 30.9338 21.4933 30.4834 21.7409 30.2544L24.8054 27.418C24.8643 27.3636 24.911 27.299 24.9429 27.2277C24.9748 27.1564 24.9913 27.0799 24.9913 27.0026C24.9914 26.9253 24.9751 26.8488 24.9433 26.7775C24.9115 26.7061 24.8649 26.6414 24.8062 26.587L22.4519 24.4008C22.3328 24.2905 22.1719 24.2287 22.0042 24.2288C21.8366 24.2288 21.6757 24.2908 21.5567 24.4011L17.1575 28.4939C16.9105 28.7236 16.71 29.1745 16.71 29.5002V34.493C16.71 34.8187 16.9107 35.2694 17.1578 35.4989L29.9625 47.3872C30.2098 47.6167 30.6124 47.618 30.8613 47.39L33.2314 45.2195C33.2905 45.1655 33.3376 45.1011 33.3699 45.03C33.4022 44.9589 33.419 44.8825 33.4194 44.8052C33.4199 44.728 33.4039 44.6514 33.3724 44.58C33.3409 44.5085 33.2946 44.4436 33.2361 44.3891L21.7385 33.6344C21.4923 33.4041 21.2923 32.9526 21.2923 32.627V31.2595Z" fill="black"/>
<path d="M25.3033 27.3695H14.3228V37.2405H25.3033V27.3695Z" fill="black"/>
<path d="M21.3502 30.9027L25.3621 27.2418L22.071 24.2288L16.71 29.1461V35.3092L30.5836 48.0088L33.8969 45.0171L21.3502 33.4461V30.9027Z" fill="black"/>
<path d="M12.6047 32.7766C12.6047 33.0998 12.4043 33.5473 12.1576 33.7754L0.672028 44.3939C0.613383 44.4481 0.566861 44.5125 0.535143 44.5834C0.503424 44.6543 0.487133 44.7303 0.487203 44.8071C0.487274 44.8838 0.503706 44.9598 0.535555 45.0307C0.567404 45.1015 0.614041 45.1659 0.672786 45.2199L3.02707 47.3895C3.14612 47.4989 3.30702 47.5602 3.47465 47.5601C3.64228 47.5599 3.80303 47.4982 3.92181 47.3885L16.7401 35.5215C16.9867 35.2932 17.187 34.8456 17.187 34.5224V29.5679C17.187 29.2447 16.9862 28.7975 16.7391 28.5697L3.93444 16.7728C3.68721 16.545 3.28453 16.5437 3.03566 16.7699L0.665587 18.9238C0.606453 18.9773 0.559379 19.0413 0.527097 19.1118C0.494816 19.1824 0.477968 19.2582 0.477534 19.3349C0.477099 19.4116 0.493086 19.4875 0.524566 19.5584C0.556045 19.6293 0.602392 19.6937 0.660916 19.7478L12.1585 30.4199C12.4047 30.6485 12.6047 31.0965 12.6047 31.4196V32.7766Z" fill="black"/>
<path d="M8.5937 36.7919H19.5742V27.3696H8.5937V36.7919Z" fill="black"/>
<path d="M12.5468 33.3785L0.010469 44.9745L3.3016 48.0088L17.187 35.1473V28.9411L3.31336 16.1525L0.000112458 19.1652L12.5468 30.8172V33.3785Z" fill="black"/>
<path d="M97.8366 39.4008C97.8366 38.9174 97.9667 38.5153 98.0815 38.2502C98.1964 37.9846 98.4014 37.6134 98.7576 37.269L98.7595 37.2672L98.7613 37.2654L124.864 12.1249V10.1388L119.792 5.14244H105.061L99.3468 10.5019L95.4833 6.86139L101.849 0.89065L101.85 0.890392C102.218 0.545221 102.618 0.346844 102.903 0.235828C103.189 0.124793 103.621 1.30553e-05 104.14 1.30553e-05H120.752C121.285 1.30553e-05 121.726 0.131425 122.019 0.249048C122.311 0.366491 122.719 0.576603 123.088 0.940955V0.941041L129.433 7.19043L129.434 7.19138L129.435 7.19241C129.784 7.537 129.984 7.90602 130.096 8.16812C130.207 8.43001 130.334 8.82818 130.334 9.30642V12.9738C130.334 13.4569 130.205 13.8589 130.09 14.1241C129.975 14.3893 129.77 14.7622 129.411 15.1079L129.41 15.1092L103.307 40.2496V43.3151H130.236V48.4575H100.782C100.001 48.4575 99.2518 48.1657 98.6994 47.6465C98.147 47.1272 97.8366 46.4229 97.8366 45.6885V39.4008Z" fill="black"/>
<path d="M88.5525 18.0746L68.0398 37.2598V37.9749C68.0398 40.9211 70.5994 43.3151 73.7495 43.3151H82.8428C85.9929 43.3151 88.5525 40.9211 88.5525 37.9749V18.0746ZM94.0508 37.9749C94.0508 43.7612 89.0295 48.4575 82.8428 48.4575H73.7495C67.5628 48.4575 62.5415 43.7612 62.5415 37.9749V10.4826C62.5415 4.69639 67.5627 0 73.7495 0H82.8428C89.0295 0 94.0508 4.69637 94.0508 10.4826V37.9749ZM68.0398 29.9874L88.5525 10.8022V10.4826C88.5525 7.53646 85.9929 5.14243 82.8428 5.14243H73.7495C70.5994 5.14243 68.0398 7.53644 68.0398 10.4826V29.9874Z" fill="black"/>
<path d="M33.1643 21.4325L33.9692 22.2263H48.0676V7.0229L33.1643 21.4325ZM53.5025 22.2263H59.6769V27.4057H53.5025V48.0088H48.0676V27.4057H33.0253C32.4992 27.4057 32.0624 27.2749 31.7729 27.1577C31.4834 27.0406 31.0809 26.8317 30.7153 26.4706L27.5585 23.3576L27.5486 23.3478C27.0232 22.8243 26.7317 22.1268 26.7354 21.4024L26.7367 21.3347C26.7581 20.6349 27.0544 19.9672 27.5685 19.4649L27.5735 19.4599L27.5786 19.455L46.7552 0.913636C47.1213 0.559569 47.5213 0.355947 47.807 0.242092C48.0931 0.12806 48.5257 0 49.0464 0H50.576C51.3279 0 52.05 0.275739 52.5933 0.768468L52.6454 0.816886L52.6961 0.866428C53.2131 1.38424 53.5025 2.07236 53.5025 2.78889V22.2263Z" fill="black"/>
</svg>
